<svg width="24" height="24" viewBox="0 0 24 24" fill="none" xmlns="http://www.w3.org/2000/svg">
<path d="M14.2969 4.64062L15.0469 6.98438L10.8281 11.25C10.3594 11.6719 10.3594 12.375 10.8281 12.7969C11.25 13.2656 11.9531 13.2656 12.375 12.7969L16.6406 8.57812L18.9844 9.32812C19.3125 9.46875 19.6875 9.375 19.9688 9.09375L22.9219 6.14062C23.4375 5.625 23.25 4.78125 22.5469 4.54688L19.9688 3.65625L19.0781 1.07812C18.8438 0.375 18 0.1875 17.4844 0.703125L14.5312 3.65625C14.3438 3.84375 14.2031 4.125 14.2031 4.35938C14.2031 4.45312 14.25 4.54688 14.2969 4.64062ZM10.7344 9.14062L13.3594 6.5625L13.2188 6.28125C12.7031 6.14062 12.1875 6 11.625 6C8.29688 6 5.625 8.71875 5.625 12C5.625 15.3281 8.29688 18 11.625 18C14.9062 18 17.625 15.3281 17.625 12C17.625 11.4375 17.4844 10.9219 17.3438 10.4062L17.0625 10.2656L14.4844 12.8906C14.1094 14.1094 12.9375 15 11.625 15C9.9375 15 8.625 13.6875 8.625 12C8.625 10.6875 9.51562 9.51562 10.7344 9.14062ZM22.6875 8.53125L21 10.1719C20.7656 10.4531 20.4375 10.6406 20.1094 10.7344C20.2031 11.1562 20.25 11.5781 20.25 12C20.25 16.7812 16.3594 20.625 11.625 20.625C6.84375 20.625 3 16.7812 3 12C3 7.26562 6.84375 3.375 11.625 3.375C12.0469 3.375 12.4688 3.42188 12.8906 3.51562C13.0312 3.1875 13.1719 2.85938 13.4531 2.625L15.0938 0.9375C14.1562 0.65625 12.6094 0.375 11.625 0.375C5.20312 0.375 0 5.625 0 12C0 18.4219 5.20312 23.625 11.625 23.625C18 23.625 23.25 18.4219 23.25 12C23.25 10.7812 23.0156 9.60938 22.6875 8.53125Z" fill="#94D3FF"/>
</svg>
