<svg width="32" height="24" viewBox="0 0 32 24" fill="none" xmlns="http://www.w3.org/2000/svg">
<path d="M31 20H4V1C4 0.5 3.5 0 3 0H1C0.4375 0 0 0.5 0 1V22C0 23.125 0.875 24 2 24H31C31.5 24 32 23.5625 32 23V21C32 20.5 31.5 20 31 20ZM29 2H21.5625C20.25 2 19.5625 3.625 20.5 4.5625L22.5625 6.625L18 11.1875L13.375 6.625C12.625 5.8125 11.3125 5.8125 10.5625 6.625L6.25 10.9375C5.875 11.3125 5.875 11.9375 6.25 12.3125L7.6875 13.75C8.0625 14.125 8.6875 14.125 9.0625 13.75L12 10.875L16.5625 15.4375C17.3125 16.25 18.625 16.25 19.375 15.4375L25.375 9.4375L27.4375 11.5C28.375 12.4375 29.9375 11.75 29.9375 10.4375V3C30 2.5 29.5 2 29 2Z" fill="#94D3FF"/>
</svg>
