<svg width="17" height="12" viewBox="0 0 17 12" fill="none" xmlns="http://www.w3.org/2000/svg">
<path d="M15.8875 3.96875C15.1687 4.53125 14.2625 5.21875 11.075 7.53125C10.45 8 9.29375 9.03125 8.2 9.03125C7.075 9.03125 5.95 8 5.29375 7.53125C2.10625 5.21875 1.2 4.53125 0.48125 3.96875C0.35625 3.875 0.2 3.96875 0.2 4.125V10.5C0.2 11.3438 0.85625 12 1.7 12H14.7C15.5125 12 16.2 11.3438 16.2 10.5V4.125C16.2 3.96875 16.0125 3.875 15.8875 3.96875ZM8.2 8C8.91875 8.03125 9.95 7.09375 10.4812 6.71875C14.6375 3.71875 14.95 3.4375 15.8875 2.6875C16.075 2.5625 16.2 2.34375 16.2 2.09375V1.5C16.2 0.6875 15.5125 0 14.7 0H1.7C0.85625 0 0.2 0.6875 0.2 1.5V2.09375C0.2 2.34375 0.29375 2.5625 0.48125 2.6875C1.41875 3.4375 1.73125 3.71875 5.8875 6.71875C6.41875 7.09375 7.45 8.03125 8.2 8Z" fill="#017ACD"/>
</svg>
