<svg width="17" height="17" viewBox="0 0 17 17" fill="none" xmlns="http://www.w3.org/2000/svg">
  <path d="M15.9812 13.8438L12.8562 10.7188C12.7 10.5938 12.5125 10.5 12.325 10.5H11.825C12.6687 9.40625 13.2 8.03125 13.2 6.5C13.2 2.9375 10.2625 0 6.7 0C3.10625 0 0.2 2.9375 0.2 6.5C0.2 10.0938 3.10625 13 6.7 13C8.2 13 9.575 12.5 10.7 11.625V12.1562C10.7 12.3438 10.7625 12.5312 10.9187 12.6875L14.0125 15.7812C14.325 16.0938 14.7937 16.0938 15.075 15.7812L15.95 14.9062C16.2625 14.625 16.2625 14.1562 15.9812 13.8438ZM6.7 10.5C4.48125 10.5 2.7 8.71875 2.7 6.5C2.7 4.3125 4.48125 2.5 6.7 2.5C8.8875 2.5 10.7 4.3125 10.7 6.5C10.7 8.71875 8.8875 10.5 6.7 10.5Z" fill="#008CD4"/>
</svg>
